# xmcd CD database file
#
# Track frame offsets:
#	150
#	9560
#	26491
#	42085
#	54934
#	64760
#	76647
#	85727
#	100840
#	115835
#	130307
#	143957
#	154298
#	168861
#	181654
#	187760
#	203187
#	213472
#	222678
#	236816
#	244489
#	255471
#	267582
#
# Disc length: 3765 seconds
#
# Revision: 0
# Processed by: cddbd v1.5.2PL0 Copyright (c) Steve Scherf et al.
# Submitted via: CDex 1.70beta2
#
DISCID=3f0eb317
DTITLE=Robbins Marty - What God Has Done - Christmas With Marty Robbins [CD2)
DYEAR=2018
DGENRE=Country
TTITLE0=When The Roll Is Called Up Yonder
TTITLE1=An Evening Prayer
TTITLE2=A Little Spot In Heaven
TTITLE3=What God Has Done
TTITLE4=You Gotta Climb
TTITLE5=Almost Persuaded
TTITLE6=There's Power In This Blood
TTITLE7=With My Hand On His Shoulder
TTITLE8=The Great Speckled Bird
TTITLE9=Will The Circle Be Unbroken
TTITLE10=Who At My Door Is Standing
TTITLE11=Have Thine Own Way Lord
TTITLE12=O Little Town Of Bethlehem
TTITLE13=Christmas Is For Kids
TTITLE14=Christmas Time Is Here Again
TTITLE15=Many Christmases Ago
TTITLE16=The Joy Of Christmas
TTITLE17=Little Stranger
TTITLE18=Hark The Herald Angels Sing
TTITLE19=One Of You
TTITLE20=Christmas Kisses
TTITLE21=Merry Christmas To You From Me
TTITLE22=A Christmas Prayer
EXTD=YEAR: 2018
EXTT0=
EXTT1=
EXTT2=
EXTT3=
EXTT4=
EXTT5=
EXTT6=
EXTT7=
EXTT8=
EXTT9=
EXTT10=
EXTT11=
EXTT12=
EXTT13=
EXTT14=
EXTT15=
EXTT16=
EXTT17=
EXTT18=
EXTT19=
EXTT20=
EXTT21=
EXTT22=
PLAYORDER=
